<?xml version="1.0" standalone="no"?><!DOCTYPE svg PUBLIC "-//W3C//DTD SVG 1.1//EN" "http://www.w3.org/Graphics/SVG/1.1/DTD/svg11.dtd"><svg t="1592973257759" class="icon" viewBox="0 0 1024 1024" version="1.1" xmlns="http://www.w3.org/2000/svg" p-id="9201" xmlns:xlink="http://www.w3.org/1999/xlink" width="200" height="200"><defs><style type="text/css"></style></defs><path d="M510.414861 41.213622c-208.354939 0-377.263158 169.284425-377.263158 378.104339C133.151703 628.146328 510.414861 1001.80805 510.414861 1001.80805S887.678019 628.146328 887.678019 419.317961c0-208.819913-168.908219-378.104338-377.263158-378.104339z m0 621.374613C375.593478 662.588235 266.303406 553.298163 266.303406 418.47678s109.290072-244.111455 244.111455-244.111455S754.526316 283.655397 754.526316 418.47678s-109.290072 244.111455-244.111455 244.111455z" fill="#ffffff" p-id="9202"></path><path d="M670.251856 367.566332c-28.790357-137.759174-159.084582-137.010989-159.084583-137.010988s-122.719373-2.248784-161.354501 107.810609c-24.998704 83.851756 10.943802 133.971748 20.454638 148.238002-5.550101-7.126786 134.081651 134.770658 134.081651 134.770658l43.179195-40.427393-129.537585-128.024306s-30.29941-28.452194-20.450411-74.121114c7.820021-104.306394 180.803104-145.756731 218.170122-4.493342 12.118918 71.124144-70.452045 128.024305-70.452046 128.024306l40.909276 40.427393s100.751455-71.124144 84.084244-175.193825z m-145.448157 6.742126c15.910572-10.483055 7.574852-49.414076 0-49.414076S461.169866 319.652854 461.169866 396.770939c2.274147 70.371732 53.784834 65.134431 59.089767 65.134431 20.454638-3.745156 15.906345-47.169519 2.274146-47.169519h-20.454638l2.274147-40.423166c-0.004227-0.004227 11.362279-0.004227 20.450411-0.004227z" fill="#ffffff" p-id="9203"></path></svg>