<?xml version="1.0" standalone="no"?>
<!DOCTYPE svg PUBLIC "-//W3C//DTD SVG 20010904//EN"
 "http://www.w3.org/TR/2001/REC-SVG-20010904/DTD/svg10.dtd">
<svg version="1.0" xmlns="http://www.w3.org/2000/svg"
 width="148.000000pt" height="80.000000pt" viewBox="0 0 148.000000 80.000000"
 preserveAspectRatio="xMidYMid meet">

<g transform="translate(0.000000,80.000000) scale(0.100000,-0.100000)"
fill="#000000" stroke="none">
<path d="M938 788 c15 -8 22 -19 20 -32 -4 -27 -44 -29 -41 -2 1 13 -2 15 -10
7 -8 -8 -7 -16 6 -28 20 -20 50 -8 56 22 3 19 -23 46 -43 44 -6 0 -1 -5 12
-11z"/>
<path d="M870 770 c-9 -6 -10 -10 -3 -10 6 0 15 5 18 10 8 12 4 12 -15 0z"/>
<path d="M855 673 c-27 -13 -39 -21 -25 -17 14 4 43 7 65 8 30 1 40 -3 43 -16
5 -26 -54 -58 -108 -58 -57 0 -80 -16 -130 -90 -29 -42 -49 -61 -75 -70 -40
-13 -91 -5 -119 19 -18 15 -19 15 -11 -4 5 -11 8 -34 7 -52 l-2 -32 25 24 c15
16 36 25 55 25 47 0 90 22 152 79 41 37 75 58 120 73 78 26 128 61 128 92 0
51 -46 59 -125 19z"/>
<path d="M680 661 c0 -9 34 -21 60 -20 8 0 0 6 -19 14 -39 18 -41 18 -41 6z"/>
<path d="M340 296 c0 -4 25 -43 55 -89 52 -77 55 -85 55 -144 0 -35 4 -63 10
-63 6 0 10 28 10 65 0 62 3 70 48 138 65 97 65 97 50 97 -7 0 -33 -32 -58 -70
-25 -38 -47 -69 -50 -69 -3 0 -25 30 -50 66 -39 58 -70 88 -70 69z"/>
<path d="M710 150 l0 -151 88 3 c108 4 116 22 10 26 l-78 3 0 134 c0 83 -4
135 -10 135 -6 0 -10 -57 -10 -150z"/>
<path d="M940 150 c0 -93 4 -150 10 -150 6 0 10 57 10 150 0 93 -4 150 -10
150 -6 0 -10 -57 -10 -150z"/>
<path d="M1037 293 c-4 -3 -7 -71 -7 -150 0 -120 2 -143 15 -143 12 0 15 14
15 70 0 91 14 91 82 0 29 -38 58 -70 65 -70 7 0 13 2 13 4 0 2 -25 36 -55 75
l-55 71 51 71 c28 38 48 73 44 77 -8 8 -34 -21 -82 -91 -48 -69 -63 -63 -63
23 0 64 -6 81 -23 63z"/>
<path d="M1280 150 l0 -150 101 0 c76 0 100 3 97 13 -3 8 -32 13 -86 15 l-82
3 0 124 0 125 85 0 c50 0 85 4 85 10 0 6 -40 10 -100 10 l-100 0 0 -150z"/>
<path d="M25 158 c-9 -73 -20 -139 -22 -145 -3 -7 2 -13 11 -13 9 0 16 6 16
13 0 25 28 199 33 203 3 3 24 -22 47 -56 24 -33 45 -58 47 -56 2 2 24 32 48
65 l43 62 10 -63 c6 -35 14 -87 18 -115 4 -35 11 -53 20 -53 8 0 14 1 14 3 0
1 -9 55 -20 120 -11 65 -20 129 -20 143 0 13 -3 24 -7 24 -5 0 -30 -34 -57
-75 -27 -41 -49 -75 -51 -75 -1 0 -24 34 -51 75 -27 41 -52 74 -55 75 -3 0
-14 -60 -24 -132z"/>
<path d="M1340 120 c0 -6 27 -10 60 -10 33 0 60 4 60 10 0 6 -27 10 -60 10
-33 0 -60 -4 -60 -10z"/>
</g>
</svg>
