<?xml version="1.0" standalone="no"?><!DOCTYPE svg PUBLIC "-//W3C//DTD SVG 1.1//EN" "http://www.w3.org/Graphics/SVG/1.1/DTD/svg11.dtd"><svg t="1592973350256" class="icon" viewBox="0 0 1024 1024" version="1.1" xmlns="http://www.w3.org/2000/svg" p-id="11809" xmlns:xlink="http://www.w3.org/1999/xlink" width="200" height="200"><defs><style type="text/css"></style></defs><path d="M921.7 338.4C898.3 284.2 866.4 237 826 196.7c-40.3-40.3-87.5-72.2-141.5-95.6C630.5 77.7 572.7 66 511.1 66c-61.6 0-119.4 11.7-173.4 35.1-54 23.4-101.1 55.3-141.5 95.6-40.3 40.3-72.2 87.5-95.7 141.7C77.3 392.6 65.6 450.5 65.6 512s11.7 119.3 35.2 173.2c23.4 53.9 55.3 101 95.7 141.3 40.3 40.3 87.5 72.2 141.5 95.6 54 23.4 111.8 35.1 173.4 35.1 61.6 0 119.4-11.7 173.4-35.1 54-23.4 101.1-55.3 141.5-95.6 40.3-40.3 72.2-87.4 95.7-141.3 23.4-53.9 35.2-111.6 35.2-173.2-0.3-61.5-12-119.4-35.5-173.6zM515.5 769.2c-35.1 0-64.7-30.2-64.7-65.9 0-3.1 2.5-5.7 5.6-5.7H480c3.1 0 5.7 2.6 5.6 5.7 0 16.7 13.4 30.3 29.8 30.3s29.8-13.6 29.8-30.3c0-3.1 2.5-5.7 5.6-5.7h23.6c3.2 0 5.7 2.6 5.7 5.7 0.1 35.7-29.5 65.9-64.6 65.9zM751.7 685H279.3c-3.1 0-5.6-2.6-5.6-5.8 0.1-6.3 0.5-12.5 1.3-18.7 5.7-38.4 26.1-72.9 57.7-95V462.8c0-77.5 47.4-147 118.4-174.3 2.9-33.4 31.1-60 64.4-60 33.3 0 61.4 26.6 64.4 60 71 27.2 118.4 96.7 118.4 174.2v102.7c31.6 22 53.5 56.4 57.7 95 1 9.1 1.3 15.8 1.3 18.7 0.1 3.3-2.4 5.9-5.6 5.9z" fill="#ffffff" p-id="11810"></path><path d="M666.5 587.6c-1.9-1-3.1-3-3.1-5.2V462.8c0-60-36.6-115.9-91-139-7.3-3.1-15-5.6-22.7-7.5-2.6-0.6-4.4-3-4.3-5.6v-16.3c0-16.4-13.6-30.3-29.8-30.3-16.2 0-29.8 13.9-29.8 30.3v16.3c0 2.6-1.8 4.9-4.3 5.6-65.9 15.8-113.8 77.5-113.8 146.5v119.6c0 2.2-1.2 4.2-3.1 5.2-25 12.6-43.6 35-51.6 61.9h405c-7.9-26.9-26.6-49.3-51.5-61.9z" fill="#ffffff" p-id="11811"></path></svg>